{"title":"I Frankenstein 2014 HDCAM Xvid Mp3-MiLLENiUM","uid":9593700,"size":1109011312,"categoryP":"video","categoryS":"movies","magnet":"?xt=urn:btih:e9bf2f13752c0ad7670a1f0cb08e87b7435b2212&amp;dn=I+Frankenstein+2014+HDCAM+Xvid+Mp3-MiLLENiUM&amp;tr=udp%3A%2F%2Ftracker.openbittorrent.com%3A80&amp;tr=udp%3A%2F%2Fopen.demonii.com%3A1337&amp;tr=udp%3A%2F%2Ftracker.coppersurfer.tk%3A6969&amp;tr=udp%3A%2F%2Fexodus.desync.com%3A6969","seeders":1,"leechers":0,"uploader":".BONE.","files":3,"time":1391967511,"description":"General &lt;a href=&quot;\nhttp://www.imdb.com/title/tt1418377/&quot; rel=&quot;nofollow&quot; target=&quot;_NEW&quot;&gt;\nhttp://www.imdb.com/title/tt1418377/&lt;/a&gt;\nComplete name : I Frankenstein 2014 CAM Xvid Mp3-MiLLENiUM.avi\nsource : VOBS [Thanks bro :) ]\nFormat : AVI\nFormat/Info : Audio Video Interleave\nFile size : 1.00 GiB\nDuration : 1h 21mn\nOverall bit rate : 1 764 Kbps\nWriting application : VirtualDubMod 1.5.10.2 (build 2540/release)\nWriting library : VirtualDubMod build 2540/release\n\nVideo\nID : 0\nFormat : MPEG-4 Visual\nFormat profile : Advanced Simple@L5\nFormat settings, BVOP : 2\nFormat settings, QPel : No\nFormat settings, GMC : No warppoints\nFormat settings, Matrix : Default (H.263)\nMuxing mode : Packed bitstream\nCodec ID : XVID\nCodec ID/Hint : XviD\nDuration : 1h 21mn\nBit rate : 1 624 Kbps\nWidth : 720 pixels\nHeight : 320 pixels\nDisplay aspect ratio : 2.25:1\nFrame rate : 29.970 fps\nColor space : YUV\nChroma subsampling : 4:2:0\nBit depth : 8 bits\nScan type : Progressive\nCompression mode : Lossy\nBits/(Pixel*Frame) : 0.235\nStream size : 944 MiB (92%)\nWriting library : XviD 64\n\nAudio\nID : 1\nFormat : MPEG Audio\nFormat version : Version 1\nFormat profile : Layer 3\nMode : Joint stereo\nMode extension : MS Stereo\nCodec ID : 55\nCodec ID/Hint : MP3\nDuration : 1h 21mn\nBit rate mode : Constant\nBit rate : 128 Kbps\nChannel(s) : 2 channels\nSampling rate : 48.0 KHz\nCompression mode : Lossy\nStream size : 74.4 MiB (7%)\nAlignment : Aligned on interleaves\nInterleave, duration : 33 ms (1.00 video frame)\nInterleave, preload duration : 504 ms\n\n\nNotes :\n\nDeinterlaced, Denoised, cropped and pulled perspective top and bottom,\nRan a deblock and altered coef gain as well as brightness, contast, saturation and sharpness\nAudio was ran threw a FLFR filter and levels adjusted\n &lt;a href=&quot;\nhttp://t1.someimage.com/5i5ZHND.jpg&quot; rel=&quot;nofollow&quot; target=&quot;_NEW&quot;&gt;\nhttp://t1.someimage.com/5i5ZHND.jpg&lt;/a&gt; &lt;a href=&quot;\nhttp://t1.someimage.com/4JC7FfQ.jpg&quot; rel=&quot;nofollow&quot; target=&quot;_NEW&quot;&gt;\nhttp://t1.someimage.com/4JC7FfQ.jpg&lt;/a&gt; &lt;a href=&quot;\nhttp://t1.someimage.com/5Jb2FZp.jpg&quot; rel=&quot;nofollow&quot; target=&quot;_NEW&quot;&gt;\nhttp://t1.someimage.com/5Jb2FZp.jpg&lt;/a&gt; &lt;a href=&quot;\nhttp://t1.someimage.com/Erfzxj0.jpg&quot; rel=&quot;nofollow&quot; target=&quot;_NEW&quot;&gt;\nhttp://t1.someimage.com/Erfzxj0.jpg&lt;/a&gt; &lt;a href=&quot;\nhttp://t1.someimage.com/8cv3lqT.jpg&quot; rel=&quot;nofollow&quot; target=&quot;_NEW&quot;&gt;\nhttp://t1.someimage.com/8cv3lqT.jpg&lt;/a&gt;","torrent":{"xt":"urn:btih:e9bf2f13752c0ad7670a1f0cb08e87b7435b2212","amp;dn":"I+Frankenstein+2014+HDCAM+Xvid+Mp3-MiLLENiUM","amp;tr":["udp%3A%2F%2Ftracker.openbittorrent.com%3A80","udp%3A%2F%2Fopen.demonii.com%3A1337","udp%3A%2F%2Ftracker.coppersurfer.tk%3A6969","udp%3A%2F%2Fexodus.desync.com%3A6969"],"infoHash":"e9bf2f13752c0ad7670a1f0cb08e87b7435b2212","infoHashBuffer":{"type":"Buffer","data":[233,191,47,19,117,44,10,215,103,10,31,12,176,142,135,183,67,91,34,18]},"announce":[],"urlList":[]}}